<?xml version="1.0" encoding="utf-8"?>
<!-- Generator: Adobe Illustrator 18.1.0, SVG Export Plug-In . SVG Version: 6.00 Build 0)  -->
<!DOCTYPE svg PUBLIC "-//W3C//DTD SVG 1.1//EN" "http://www.w3.org/Graphics/SVG/1.1/DTD/svg11.dtd">
<svg version="1.1" id="Layer_1" xmlns="http://www.w3.org/2000/svg" xmlns:xlink="http://www.w3.org/1999/xlink" x="0px" y="0px"
	 viewBox="0 0 407.6 419.1" enable-background="new 0 0 407.6 419.1" xml:space="preserve">
<path fill="#BF041B" d="M367.8,407.3l-49.8-49.8H45.2c-19.1,0-34.7-15.6-34.7-34.7V49.3c0-19.1,15.6-34.7,34.7-34.7h318.1
	c19.1,0,34.7,15.6,34.7,34.7v273.5c0,17.3-13.1,32.1-30.2,34.4V407.3z M45.2,18.2C28,18.2,14,32.2,14,49.3v273.5
	c0,17.2,14,31.1,31.1,31.1h274.2l44.8,44.8v-44.8l1.6-0.1c16-1.3,28.5-14.9,28.5-31V49.3c0-17.2-14-31.1-31.1-31.1H45.2z"/>
</svg>
